<svg id="svg" version="1.1" xmlns="http://www.w3.org/2000/svg" xmlns:xlink="http://www.w3.org/1999/xlink" width="400" height="491.34328358208955" viewBox="0, 0, 400,491.34328358208955"><g id="svgg"><path id="path0" d="M261.194 35.397 C 268.427 38.817,282.685 46.178,285.821 48.110 C 287.216 48.970,288.358 49.550,288.358 49.399 C 288.358 48.340,258.831 32.827,256.852 32.846 C 256.285 32.851,258.239 33.999,261.194 35.397 M251.642 38.806 C 251.415 39.838,251.354 40.807,251.506 40.959 C 251.658 41.111,251.954 40.377,252.164 39.328 C 252.662 36.840,252.180 36.358,251.642 38.806 M289.254 49.973 C 289.582 50.337,291.060 51.628,292.537 52.842 C 304.208 62.432,299.195 72.749,277.764 83.251 C 273.780 85.202,270.655 87.016,270.818 87.280 C 270.982 87.545,270.412 87.761,269.552 87.761 C 268.674 87.761,268.149 88.020,268.354 88.351 C 268.555 88.676,268.369 88.809,267.941 88.646 C 266.921 88.259,260.299 93.479,260.299 94.671 C 260.299 95.178,260.059 95.445,259.767 95.264 C 259.474 95.084,258.797 95.605,258.260 96.423 C 257.724 97.241,257.426 97.910,257.598 97.910 C 257.770 97.910,257.378 98.443,256.726 99.094 C 255.266 100.555,249.977 111.026,246.292 119.752 C 236.879 142.045,236.818 142.170,235.395 141.812 C 234.358 141.552,234.142 141.686,234.421 142.415 C 234.628 142.953,234.041 144.415,233.039 145.855 C 232.081 147.232,230.771 149.402,230.126 150.678 C 229.482 151.955,228.471 153.131,227.880 153.293 C 227.278 153.458,226.649 154.366,226.451 155.357 C 226.144 156.894,225.894 157.082,224.541 156.794 C 218.513 155.508,219.820 153.993,211.474 171.940 C 206.802 181.988,201.334 193.950,198.238 200.896 C 197.652 202.209,196.735 204.264,196.199 205.463 C 195.662 206.662,195.224 207.808,195.224 208.010 C 195.224 208.383,189.864 221.490,188.368 224.776 C 186.751 228.327,183.099 237.381,182.011 240.533 C 181.400 242.303,180.629 244.079,180.298 244.478 C 179.966 244.878,179.316 246.384,178.854 247.826 C 177.333 252.563,175.385 257.602,174.852 258.179 C 174.564 258.491,174.328 259.233,174.328 259.829 C 174.328 260.424,174.078 261.378,173.773 261.948 C 172.945 263.492,169.865 271.928,165.435 284.776 C 162.534 293.191,160.134 300.745,152.201 326.430 C 150.714 331.247,150.725 331.343,152.771 331.343 C 154.157 331.343,154.578 331.020,154.907 329.701 C 155.132 328.799,155.668 327.254,156.097 326.269 C 156.527 325.284,157.470 322.866,158.192 320.896 C 158.914 318.925,160.054 315.970,160.726 314.328 C 162.808 309.239,162.899 308.996,163.301 307.463 C 163.999 304.800,166.003 301.011,166.893 300.669 C 168.001 300.244,168.019 301.619,166.937 304.089 C 166.483 305.124,165.381 308.119,164.488 310.746 C 163.594 313.373,162.519 316.328,162.099 317.313 C 161.679 318.299,161.001 320.179,160.592 321.493 C 160.184 322.806,159.345 325.010,158.729 326.390 C 156.464 331.460,157.368 332.688,162.632 331.687 C 164.231 331.382,173.731 314.570,173.731 312.043 C 173.731 311.861,174.770 309.479,176.040 306.751 C 177.310 304.023,178.816 300.716,179.388 299.403 C 179.959 298.090,181.098 295.537,181.918 293.731 C 182.738 291.925,183.628 289.910,183.895 289.254 C 184.163 288.597,185.166 286.313,186.125 284.179 C 187.084 282.045,188.480 278.687,189.228 276.716 C 189.976 274.746,190.796 272.714,191.050 272.201 C 191.986 270.311,195.224 261.982,195.224 261.464 C 195.224 261.169,195.874 259.510,196.668 257.778 C 197.463 256.045,198.845 252.478,199.740 249.851 C 200.635 247.224,201.564 244.806,201.805 244.478 C 202.045 244.149,202.444 243.209,202.691 242.388 C 202.939 241.567,203.620 239.821,204.205 238.507 C 204.790 237.194,205.598 235.045,206.001 233.731 C 206.403 232.418,207.233 230.630,207.844 229.759 C 208.455 228.887,208.955 227.530,208.955 226.744 C 208.955 225.957,209.185 225.058,209.466 224.746 C 209.747 224.434,210.431 222.701,210.986 220.896 C 211.542 219.090,212.153 217.209,212.345 216.716 C 215.218 209.340,225.075 179.977,225.075 178.794 C 225.075 178.409,225.488 177.265,225.993 176.253 C 226.913 174.409,228.313 169.890,229.180 165.970 C 229.434 164.821,229.947 163.314,230.319 162.621 C 230.692 161.929,230.843 160.410,230.654 159.247 C 230.178 156.318,231.847 153.554,234.236 153.313 C 236.667 153.068,239.931 145.671,238.543 143.553 C 237.763 142.362,237.814 142.294,239.406 142.388 C 241.397 142.507,241.014 143.171,246.294 130.448 C 249.860 121.853,251.374 118.298,255.699 108.358 C 261.267 95.565,264.788 91.897,278.078 85.053 C 287.105 80.404,290.301 78.341,289.781 77.498 C 289.518 77.074,289.640 76.999,290.114 77.292 C 291.244 77.990,296.437 72.547,297.912 69.117 C 301.082 61.749,298.961 56.764,289.851 50.175 C 289.194 49.700,288.925 49.609,289.254 49.973 M237.343 99.508 C 236.807 101.420,234.084 109.836,231.292 118.209 C 228.501 126.582,225.989 134.136,225.711 134.995 C 225.083 136.929,225.529 137.702,227.566 138.213 C 229.290 138.646,232.223 131.299,232.250 126.481 C 232.266 123.455,233.754 115.963,236.379 105.688 C 238.656 96.771,239.339 92.398,237.343 99.508 M170.149 295.431 C 170.149 296.774,168.157 299.696,167.270 299.654 C 166.680 299.627,166.567 299.486,166.996 299.312 C 167.396 299.150,167.896 298.097,168.107 296.971 C 168.436 295.218,170.149 293.925,170.149 295.431 M159.695 335.672 C 159.466 337.396,158.748 339.677,158.100 340.743 C 157.057 342.458,157.904 345.678,159.062 344.399 C 159.380 344.049,161.617 338.993,162.945 335.624 L 164.162 332.537 162.137 332.537 C 160.145 332.537,160.105 332.589,159.695 335.672 M146.385 342.088 C 145.664 343.660,145.075 345.188,145.075 345.484 C 145.075 346.035,143.389 349.598,136.655 363.284 C 131.879 372.989,131.955 372.765,134.533 369.552 C 136.796 366.732,138.823 362.829,145.314 348.793 C 149.765 339.166,149.506 339.926,148.475 339.530 C 147.987 339.343,147.206 340.299,146.385 342.088 M157.631 346.851 C 157.149 347.151,156.437 348.687,156.048 350.265 C 154.306 357.341,153.364 361.025,152.873 362.687 C 151.476 367.415,149.696 373.532,148.576 377.457 C 147.895 379.841,147.124 382.463,146.862 383.284 C 146.600 384.104,145.635 388.000,144.718 391.940 C 143.802 395.881,142.847 399.247,142.598 399.421 C 142.348 399.596,142.153 400.267,142.164 400.914 C 142.175 401.561,141.778 403.836,141.282 405.970 C 140.786 408.104,139.677 413.612,138.818 418.209 C 135.707 434.860,132.164 449.352,130.702 451.405 C 128.550 454.428,125.238 453.504,114.189 446.800 C 111.814 445.358,109.639 444.179,109.355 444.179 C 109.072 444.179,108.220 443.642,107.463 442.985 C 106.705 442.328,105.806 441.791,105.464 441.791 C 105.122 441.791,105.753 442.463,106.866 443.284 C 107.978 444.104,109.124 444.776,109.411 444.776 C 109.699 444.776,111.057 445.534,112.430 446.460 C 130.153 458.417,132.976 457.086,137.426 434.676 C 142.632 408.453,147.725 387.178,155.212 360.378 C 158.950 346.998,159.145 345.911,157.631 346.851 " stroke="none" fill="#FFFFFF" fill-rule="evenodd"></path></g></svg>